<?xml version="1.0" encoding="UTF-8"?>
<svg id="Layer_1" data-name="Layer 1" xmlns="http://www.w3.org/2000/svg" viewBox="0 0 781 95.01">
  <defs>
    <style>
      .cls-1 {
        fill: #000;
      }
    </style>
  </defs>
  <path class="cls-1" d="M40.96,37.35c-11.44-1.36-19.06-3.65-19.06-10.4s6.74-11.03,17.59-11.03c9.61,0,17.51,4.78,20.34,9.5l.34,.56,14.44-7.43-.3-.62C68.55,6.2,56.34,0,38.98,0,21.62,.13,4.1,8.36,4.1,26.44c0,20.43,16.97,25.26,35.32,27.44,13.33,1.43,19.81,5.46,19.81,12.3,0,11.64-15.01,12.55-19.61,12.55-11.73,0-20.78-5.07-24.2-13.56l-.29-.72L0,72.28l.24,.59c6.05,14.89,18.85,22.14,39.13,22.14,18.27,0,37.79-7.57,37.79-28.83s-17.39-26.51-36.19-28.83Z"/>
  <path class="cls-1" d="M148.15,54.44c0,15.03-7.61,23.65-20.87,23.65s-22.13-8.84-22.13-23.65V3.15h-17.93V54.44c0,24.41,15.68,40.19,39.93,40.19s38.93-15.4,38.93-40.19V3.15h-17.93V54.44Z"/>
  <polygon class="cls-1" points="292.49 56.46 250.26 3.03 235.72 3.03 235.72 50.68 235.8 50.68 235.8 56.75 193.57 3.31 179.03 3.31 179.03 93.02 197.09 93.02 197.09 34.82 242.33 93 243.51 93.02 253.86 93.02 253.86 45.24 253.78 45.24 253.78 34.53 299.11 92.79 300.2 92.74 310.55 92.74 310.55 2.9 292.49 2.9 292.49 56.46"/>
  <polygon class="cls-1" points="406.55 4.7 406.55 3.03 385.41 3.03 362.34 38.87 340.27 3.03 319.37 3.03 319.37 4.7 353.3 55.79 353.3 92.74 371.36 92.74 371.36 55.79 406.43 4.88 406.55 4.7"/>
  <path class="cls-1" d="M462.98,16.76c-7.37-8.13-18.43-13.6-33.49-13.74l-5.4,7.84h4.82c25.23,0,36.89,18.1,37.27,36.03,.21,10.6-3.55,20.63-10.3,27.53-6.64,6.77-15.98,10.36-26.97,10.36h-22.39V36.34l-8.21,11.93v44.46h30.6c13.54,0,25.01-4.4,33.14-12.71s12.63-20.41,12.35-33.17c-.25-10.91-3.95-21.87-11.42-30.1Z"/>
  <path class="cls-1" d="M520.51,3.02h-8.35l-40.23,89.71h8.81s0,0,0,0h.03l.02-.04,52.92-41.19,18.19,41.23h8.86L520.69,3.44l-.18-.42Zm-33.4,75.31l29.17-66.31,14.32,32.45-43.49,33.86Z"/>
  <polygon class="cls-1" points="553.21 10.61 585.12 10.61 585.12 92.74 593.34 92.74 593.34 10.61 625.25 10.61 625.25 3.15 553.21 3.15 553.21 10.61"/>
  <polygon class="cls-1" points="684.72 4.87 684.94 4.66 684.94 3.03 675.76 3.03 633.85 42.35 630.02 46.33 633.85 50.13 679.22 92.55 679.42 92.74 688.98 92.74 688.98 91.23 640.86 45.99 684.72 4.87"/>
  <path class="cls-1" d="M768.1,13.99c-8.04-8.08-19.22-12.35-32.34-12.35-31.25,0-45.23,23.16-45.23,46.12s14.15,46.49,45.23,46.49,45.11-23.97,45.23-46.24h0c.07-13.51-4.51-25.59-12.9-34.02Zm-32.34,72.55c-25.35,0-37.03-20.04-37.14-38.66-.07-11.41,3.69-21.52,10.6-28.46,6.54-6.59,15.72-10.07,26.55-10.07,25.75,0,37.27,19.35,37.27,38.53s-11.66,38.66-37.27,38.66Z"/>
</svg>