<svg width="83" height="13" viewBox="0 0 83 13" fill="none" xmlns="http://www.w3.org/2000/svg">
<path d="M82.1543 5.01924L78.9179 8.10153L79.7008 12.4357L75.6767 10.4038L71.6681 12.4658L72.418 8.12705L69.1572 5.06766L73.6444 4.41783L75.6389 0.46582L77.6618 4.40278L82.1543 5.01924Z" fill="#00A3D9"/>
<path d="M30.2764 5.01924L27.0399 8.10153L27.8229 12.4357L23.7988 10.4038L19.7902 12.4658L20.54 8.12705L17.2793 5.06766L21.7665 4.41783L23.761 0.46582L25.7838 4.40278L30.2764 5.01924Z" fill="#00A3D9"/>
<path d="M64.875 5.01924L61.6386 8.10153L62.4215 12.4357L58.3974 10.4038L54.3888 12.4658L55.1387 8.12705L51.8779 5.06766L56.3651 4.41783L58.3596 0.46582L60.3825 4.40278L64.875 5.01924Z" fill="#00A3D9"/>
<path d="M12.9971 5.01924L9.76064 8.10153L10.5436 12.4357L6.51947 10.4038L2.51086 12.4658L3.26075 8.12705L0 5.06766L4.48715 4.41783L6.48167 0.46582L8.50454 4.40278L12.9971 5.01924Z" fill="#00A3D9"/>
<path d="M47.5957 5.01924L44.3593 8.10153L45.1422 12.4357L41.1181 10.4038L37.1095 12.4658L37.8594 8.12705L34.5986 5.06766L39.0858 4.41783L41.0803 0.46582L43.1032 4.40278L47.5957 5.01924Z" fill="#00A3D9"/>
</svg>
